<?xml version="1.0" standalone="no"?>
<!DOCTYPE svg PUBLIC "-//W3C//DTD SVG 20010904//EN"
 "http://www.w3.org/TR/2001/REC-SVG-20010904/DTD/svg10.dtd">
<svg version="1.0" xmlns="http://www.w3.org/2000/svg"
 width="1050.000000pt" height="600.000000pt" viewBox="0 0 1050.000000 600.000000"
 preserveAspectRatio="xMidYMid meet">

<g transform="translate(0.000000,600.000000) scale(0.100000,-0.100000)"
fill="#000000" stroke="none">
<path d="M4766 3515 c-4 -13 -56 -15 -348 -18 -202 -1 -334 -6 -320 -11 l22
-8 0 -293 c0 -292 0 -293 -22 -308 -21 -15 5 -16 320 -16 295 -1 343 -3 348
-16 15 -38 24 -7 24 80 0 94 -6 109 -30 80 -10 -12 -48 -15 -226 -15 l-214 0
0 70 0 70 145 0 c120 0 147 -3 151 -15 15 -38 24 -7 24 80 0 87 -9 118 -24 80
-4 -12 -31 -15 -151 -15 l-145 0 0 55 0 55 220 0 c187 0 222 -2 226 -15 15
-38 24 -7 24 80 0 87 -9 118 -24 80z"/>
<path d="M7356 3515 c-5 -13 -52 -15 -341 -15 -299 0 -380 -6 -315 -23 19 -5
20 -14 20 -297 0 -283 -1 -292 -20 -297 -65 -17 15 -23 312 -23 294 0 333 -2
350 -17 17 -15 18 -12 18 80 0 89 -9 120 -24 82 -4 -13 -39 -15 -226 -15
l-220 0 0 70 0 70 145 0 c120 0 147 -3 151 -15 15 -38 24 -7 24 80 0 57 -4 95
-10 95 -5 0 -10 -7 -10 -15 0 -13 -23 -15 -150 -15 l-150 0 0 55 0 55 225 0
c193 0 225 -2 225 -15 0 -8 5 -15 10 -15 6 0 10 38 10 95 0 87 -9 118 -24 80z"/>
<path d="M7530 3425 c0 -96 9 -129 24 -90 4 12 27 15 121 15 l115 0 0 -212 c0
-224 -4 -258 -26 -258 -8 0 -14 -4 -14 -10 0 -6 50 -10 130 -10 118 0 156 8
115 24 -13 5 -15 40 -15 236 l0 230 111 0 c95 0 114 -3 125 -17 11 -15 13 -2
14 90 0 97 -9 131 -24 92 -5 -13 -50 -15 -326 -15 -276 0 -321 2 -326 15 -15
39 -24 6 -24 -90z"/>
<path d="M618 3496 c-102 -30 -162 -81 -188 -159 -37 -115 44 -189 235 -216
207 -29 245 -44 231 -89 -14 -42 -102 -59 -218 -43 -108 15 -181 41 -193 69
-5 12 -13 22 -17 22 -8 0 -58 -159 -58 -184 0 -13 3 -14 19 -4 15 9 40 7 123
-12 141 -33 307 -34 390 -1 135 53 188 194 107 286 -38 43 -115 69 -265 89
-154 21 -182 34 -169 75 10 32 62 46 165 45 104 -1 174 -21 201 -55 14 -19 17
-16 58 71 42 88 47 116 17 91 -12 -10 -31 -9 -93 4 -108 23 -285 28 -345 11z"/>
<path d="M5167 3499 c-51 -12 -127 -52 -154 -81 -29 -31 -53 -90 -53 -131 0
-84 81 -140 238 -164 168 -26 203 -34 224 -55 17 -17 18 -22 5 -41 -26 -40
-80 -51 -193 -39 -124 13 -214 44 -214 74 0 11 -5 18 -11 16 -13 -4 -70 -184
-62 -192 3 -3 13 0 23 6 14 9 40 7 113 -10 142 -33 248 -38 341 -18 125 28
198 99 199 194 2 120 -69 164 -313 197 -126 18 -163 34 -158 68 5 36 52 52
153 52 108 0 204 -26 212 -56 3 -10 8 -19 12 -19 8 0 92 182 86 188 -2 3 -11
0 -18 -7 -11 -8 -42 -6 -132 9 -122 21 -233 24 -298 9z"/>
<path d="M8611 3490 c-125 -33 -200 -90 -242 -185 -32 -70 -32 -180 0 -253 83
-188 382 -256 645 -148 47 20 92 33 101 30 25 -10 18 4 -51 103 -64 91 -78
101 -86 58 -2 -12 -25 -32 -58 -50 -51 -28 -63 -30 -155 -30 -91 0 -104 2
-147 27 -49 29 -88 91 -88 139 1 81 77 151 184 169 104 17 256 -25 256 -70 0
-39 16 -19 67 84 l52 105 -32 -2 c-18 0 -78 9 -134 21 -123 27 -214 27 -312 2z"/>
<path d="M1250 3491 c0 -5 9 -11 20 -14 19 -5 20 -14 20 -297 0 -283 -1 -292
-20 -297 -54 -14 -7 -23 121 -23 91 0 138 4 134 10 -3 6 -13 10 -21 10 -11 0
-14 23 -14 125 l0 126 158 -3 157 -3 3 -118 c2 -112 2 -119 -18 -124 -53 -14
-8 -23 115 -23 83 0 135 4 135 10 0 6 -6 10 -14 10 -8 0 -17 7 -20 16 -3 9 -6
142 -6 296 0 271 1 280 20 285 53 14 7 23 -115 23 -123 0 -168 -9 -115 -23 19
-5 21 -12 18 -104 l-3 -98 -157 -3 -158 -3 0 106 c0 85 3 105 14 105 8 0 18 5
21 10 4 6 -43 10 -134 10 -78 0 -141 -4 -141 -9z"/>
<path d="M2461 3481 c10 -15 -6 -58 -99 -267 -60 -137 -117 -266 -126 -287 -8
-20 -22 -40 -31 -43 -39 -15 -6 -24 95 -24 61 0 110 4 110 9 0 5 -6 11 -12 13
-10 4 -6 19 11 56 l24 52 169 0 168 0 22 -45 c19 -38 20 -49 10 -65 -12 -19
-9 -20 113 -20 69 0 125 3 125 6 0 3 -9 13 -19 22 -18 16 -281 560 -281 582 0
5 5 10 10 10 6 0 10 5 10 10 0 6 -58 10 -155 10 -149 0 -155 -1 -144 -19z
m199 -258 c30 -64 57 -120 58 -125 4 -9 -221 -12 -230 -2 -6 6 103 244 112
244 3 0 30 -52 60 -117z"/>
<path d="M3210 3492 c0 -6 7 -12 15 -16 13 -5 15 -47 15 -296 0 -249 -2 -291
-15 -296 -41 -16 -3 -24 110 -24 77 0 125 4 125 10 0 6 -6 10 -14 10 -21 0
-26 23 -26 126 l0 94 73 0 72 0 53 -93 c54 -97 63 -127 37 -127 -8 0 -15 -4
-15 -10 0 -6 55 -10 145 -10 132 0 177 9 127 24 -16 5 -152 197 -152 214 0 4
21 18 47 32 27 14 60 43 76 66 24 35 29 52 29 102 0 84 -30 137 -97 171 -49
26 -52 26 -327 29 -168 2 -278 -1 -278 -6z m488 -132 c26 -16 32 -26 32 -55 0
-39 -25 -71 -62 -80 -13 -3 -72 -5 -133 -3 l-110 3 -3 78 -3 77 123 0 c105 0
128 -3 156 -20z"/>
<path d="M5788 3483 c22 -15 22 -16 22 -303 0 -287 0 -288 -22 -303 -21 -15
-13 -16 122 -16 135 0 143 1 123 16 -20 13 -23 24 -23 82 l0 67 60 59 c37 37
63 56 69 50 19 -21 151 -227 151 -237 0 -5 -9 -12 -20 -15 -54 -14 -5 -23 130
-23 83 0 150 3 150 8 0 4 -8 12 -18 18 -9 6 -72 92 -139 191 l-122 180 100 92
c55 50 117 103 139 117 22 15 40 28 40 30 0 2 -66 4 -147 4 -147 0 -148 -1
-123 -19 24 -19 24 -19 5 -42 -24 -26 -244 -222 -262 -233 -10 -6 -13 24 -13
133 0 116 3 141 14 141 8 0 18 5 21 10 4 6 -44 10 -137 9 -133 0 -141 -1 -120
-16z"/>
<path d="M9270 3491 c0 -5 9 -11 20 -14 19 -5 20 -14 20 -297 0 -283 -1 -292
-20 -297 -54 -14 -7 -23 121 -23 91 0 138 4 134 10 -3 6 -13 10 -21 10 -11 0
-14 23 -14 125 l0 126 158 -3 157 -3 3 -118 c2 -112 2 -119 -18 -124 -53 -14
-8 -23 115 -23 83 0 135 4 135 10 0 6 -6 10 -14 10 -8 0 -17 7 -20 16 -3 9 -6
142 -6 296 0 271 1 280 20 285 53 14 7 23 -115 23 -123 0 -168 -9 -115 -23 19
-5 21 -12 18 -104 l-3 -98 -157 -3 -158 -3 0 106 c0 85 3 105 14 105 8 0 18 5
21 10 4 6 -43 10 -134 10 -78 0 -141 -4 -141 -9z"/>
</g>
</svg>
