<?xml version="1.0" standalone="no"?>
<!DOCTYPE svg PUBLIC "-//W3C//DTD SVG 20010904//EN"
 "http://www.w3.org/TR/2001/REC-SVG-20010904/DTD/svg10.dtd">
<svg version="1.0" xmlns="http://www.w3.org/2000/svg"
 width="500.000000pt" height="500.000000pt" viewBox="0 0 500.000000 500.000000"
 preserveAspectRatio="xMidYMid meet">

<g transform="translate(0.000000,500.000000) scale(0.100000,-0.100000)"
fill="#000000" stroke="none">
<path d="M0 2500 l0 -2500 2500 0 2500 0 0 2500 0 2500 -2500 0 -2500 0 0
-2500z m2172 1889 c55 -14 117 -67 151 -127 55 -98 48 -270 -20 -471 -31 -93
-170 -381 -184 -381 -25 0 -70 33 -85 62 -25 48 -14 143 31 268 20 58 57 163
82 234 94 268 64 356 -119 356 -246 -1 -487 -170 -618 -435 -78 -158 -90 -292
-34 -395 57 -105 128 -160 442 -346 239 -140 366 -265 423 -412 27 -72 37
-238 19 -321 -51 -236 -265 -429 -565 -507 -134 -35 -328 -37 -450 -5 -151 40
-264 112 -344 219 -129 172 -128 484 2 615 51 50 170 107 241 114 l58 6 -37
-49 c-54 -70 -103 -178 -121 -268 -49 -239 81 -464 301 -521 77 -20 259 -20
345 1 159 37 303 141 362 262 31 63 33 72 32 177 0 125 -12 161 -82 254 -67
88 -157 156 -416 310 -232 140 -341 235 -400 348 -108 210 -5 550 235 778 154
146 308 220 508 245 73 9 186 4 243 -11z m1690 -5 c58 -19 119 -76 149 -141
34 -72 33 -233 -3 -363 -44 -158 -178 -453 -213 -466 -20 -8 -54 14 -75 49
-35 57 -27 131 31 297 132 378 146 437 115 502 -23 48 -69 68 -159 68 -242 -1
-479 -163 -611 -420 -61 -118 -79 -185 -74 -279 4 -96 30 -151 107 -229 69
-70 105 -96 281 -197 189 -109 305 -190 376 -263 166 -169 211 -416 114 -634
-78 -177 -284 -331 -525 -394 -134 -35 -329 -37 -450 -5 -126 33 -220 84 -295
160 -78 79 -116 152 -137 264 -36 193 16 367 134 448 56 39 165 79 216 79 l39
0 -35 -40 c-76 -90 -137 -251 -137 -365 0 -223 134 -396 338 -435 89 -18 291
-8 362 18 187 66 292 160 340 303 18 52 21 79 17 146 -12 197 -115 310 -486
532 -259 155 -354 238 -416 364 -31 63 -38 89 -42 159 -19 300 208 639 529
787 160 74 377 98 510 55z m-2632 -3369 c0 -41 3 -75 8 -75 4 0 16 7 26 15 28
21 99 19 127 -4 23 -18 24 -26 27 -155 l4 -136 -41 0 -41 0 0 114 c0 137 -9
152 -68 121 l-37 -20 -3 -107 -3 -108 -39 0 -40 0 0 215 0 215 40 0 40 0 0
-75z m1612 -45 l3 -120 45 55 c42 51 48 55 88 55 l44 0 -44 -51 c-23 -28 -47
-56 -52 -63 -6 -9 8 -39 47 -95 32 -46 57 -84 57 -87 0 -2 -18 -4 -40 -4 -37
0 -42 4 -80 61 -34 49 -44 58 -56 48 -9 -7 -14 -30 -14 -60 l0 -49 -40 0 -40
0 0 215 0 215 40 0 39 0 3 -120z m1168 40 l0 -80 33 20 c34 21 97 26 127 10
29 -16 40 -66 40 -186 l0 -114 -40 0 -40 0 0 115 c0 104 -2 115 -20 125 -14 8
-26 7 -42 -1 -55 -28 -58 -36 -58 -141 l0 -98 -35 0 -35 0 0 215 0 215 35 0
35 0 0 -80z m-2994 40 c56 -27 63 -49 27 -77 l-27 -22 -24 22 c-30 28 -98 30
-118 3 -22 -31 -1 -50 81 -74 98 -29 125 -56 125 -124 0 -61 -20 -92 -71 -112
-74 -30 -166 -16 -212 32 l-27 28 30 22 30 23 29 -22 c52 -39 141 -25 141 22
0 24 -30 41 -108 64 -99 29 -136 92 -100 171 27 59 145 82 224 44z m1595 10
c19 -6 46 -21 58 -34 l23 -25 -28 -25 c-34 -30 -40 -31 -47 -12 -3 8 -23 20
-44 26 -48 14 -93 0 -93 -30 0 -25 32 -45 100 -60 39 -9 65 -23 89 -47 31 -31
33 -37 29 -85 -4 -42 -11 -57 -36 -79 -54 -48 -167 -50 -234 -5 -40 27 -41 43
-6 69 l28 21 23 -22 c25 -23 74 -31 115 -18 16 5 22 15 22 36 0 30 7 26 -138
77 -52 18 -77 53 -76 105 3 93 97 141 215 108z m887 -57 c3 -42 4 -43 38 -43
33 0 35 -2 32 -27 -2 -23 -8 -29 -35 -31 l-33 -3 0 -89 c0 -93 6 -104 49 -93
16 4 22 -1 27 -22 8 -33 -7 -45 -54 -45 -44 0 -88 24 -96 52 -3 13 -6 62 -6
111 0 80 -2 87 -20 87 -16 0 -20 7 -20 30 0 23 4 30 20 30 17 0 20 7 20 46 l0
45 38 -3 c36 -3 37 -4 40 -45z m-1779 -59 l31 -26 0 -129 0 -129 -34 0 c-19 0
-36 5 -38 11 -2 6 -14 5 -33 -5 -45 -24 -89 -20 -124 10 -26 22 -31 33 -31 70
0 70 48 104 147 104 37 0 53 21 33 45 -16 19 -79 19 -106 1 -18 -13 -23 -12
-49 9 l-29 23 34 21 c26 16 51 21 102 21 57 0 71 -4 97 -26z m311 9 c0 -43
-11 -60 -40 -60 -16 0 -40 -7 -54 -17 -25 -16 -26 -20 -26 -116 l0 -100 -40 0
-40 0 0 150 0 150 40 0 c30 0 40 -4 40 -16 0 -14 5 -13 33 5 41 26 87 28 87 4z
m251 1 c36 -18 59 -67 59 -124 l0 -40 -100 0 c-107 0 -115 -4 -84 -48 11 -17
25 -22 58 -22 23 0 47 5 53 11 8 8 19 6 42 -7 25 -15 28 -20 18 -32 -35 -43
-126 -53 -193 -23 -31 14 -45 28 -57 60 -33 82 -11 187 47 222 38 23 115 25
157 3z m1010 -1 c32 -19 59 -77 59 -128 l0 -35 -100 0 c-87 0 -100 -2 -100
-17 0 -31 31 -53 75 -53 22 0 46 5 52 11 15 15 66 -15 61 -34 -7 -21 -72 -47
-118 -47 -103 0 -153 59 -148 172 4 73 24 112 69 135 35 18 116 16 150 -4z
m549 2 c17 -9 30 -22 30 -29 0 -17 -47 -49 -55 -37 -11 19 -65 23 -90 7 -40
-26 -46 -124 -9 -161 18 -17 66 -20 95 -5 14 8 25 6 44 -6 32 -21 29 -32 -16
-56 -25 -14 -48 -18 -87 -15 -91 7 -135 58 -135 157 0 65 23 119 61 142 34 22
123 23 162 3z"/>
<path d="M1599 789 c-30 -11 -41 -38 -27 -63 11 -20 40 -21 78 -1 23 12 30 22
30 45 0 26 -3 30 -27 29 -16 0 -40 -5 -54 -10z"/>
<path d="M2162 898 c-5 -7 -12 -22 -14 -33 -3 -18 3 -20 57 -20 54 0 60 2 57
20 -6 32 -22 45 -57 45 -18 0 -37 -6 -43 -12z"/>
<path d="M3166 888 c-28 -40 -21 -48 44 -48 56 0 60 2 60 23 0 32 -18 47 -56
47 -23 0 -38 -7 -48 -22z"/>
</g>
</svg>
