<?xml version="1.0" standalone="no"?>
<!DOCTYPE svg PUBLIC "-//W3C//DTD SVG 20010904//EN"
 "http://www.w3.org/TR/2001/REC-SVG-20010904/DTD/svg10.dtd">
<svg version="1.0" xmlns="http://www.w3.org/2000/svg"
 width="1050.000000pt" height="600.000000pt" viewBox="0 0 1050.000000 600.000000"
 preserveAspectRatio="xMidYMid meet">

<g transform="translate(0.000000,600.000000) scale(0.100000,-0.100000)"
fill="#000000" stroke="none">
<path d="M0 3000 l0 -3000 5250 0 5250 0 0 3000 0 3000 -5250 0 -5250 0 0
-3000z m4790 435 c0 -87 -9 -118 -24 -80 -4 13 -39 15 -226 15 l-220 0 0 -55
0 -55 145 0 c120 0 147 3 151 15 15 38 24 7 24 -80 0 -87 -9 -118 -24 -80 -4
12 -31 15 -151 15 l-145 0 0 -70 0 -70 212 0 c204 0 213 1 235 22 l23 21 0
-101 c0 -93 -9 -126 -24 -87 -5 13 -52 15 -346 15 -304 0 -385 6 -320 23 19 5
20 14 20 300 l0 295 -22 8 c-14 5 118 10 320 11 292 3 344 5 348 18 15 38 24
7 24 -80z m2590 0 c0 -57 -4 -95 -10 -95 -5 0 -10 7 -10 15 0 13 -32 15 -225
15 l-225 0 0 -55 0 -55 150 0 c127 0 150 2 150 15 0 8 5 15 10 15 6 0 10 -38
10 -95 0 -87 -9 -118 -24 -80 -4 12 -31 15 -151 15 l-145 0 0 -70 0 -70 219 0
c215 0 219 0 234 23 15 21 16 16 16 -80 1 -94 -8 -127 -23 -88 -5 13 -52 15
-341 15 -217 0 -335 4 -335 10 0 6 6 10 14 10 8 0 17 7 20 16 8 20 8 548 0
568 -3 9 -12 16 -20 16 -8 0 -14 5 -14 10 0 6 118 10 335 10 289 0 336 2 341
15 15 38 24 7 24 -80z m180 80 c11 -13 60 -15 327 -15 270 0 314 2 319 15 15
39 24 6 24 -90 0 -63 -4 -105 -10 -105 -5 0 -10 7 -10 15 0 12 -19 15 -115 15
l-115 0 0 -230 c0 -196 2 -231 15 -236 41 -16 3 -24 -115 -24 -118 0 -156 8
-115 24 13 5 15 40 15 236 l0 230 -110 0 c-89 0 -112 -3 -116 -15 -15 -39 -24
-6 -24 90 0 103 5 120 30 90z m-6625 -25 c79 -13 113 -16 123 -8 29 25 23 -8
-18 -92 -24 -50 -47 -90 -51 -90 -4 0 -9 9 -12 19 -7 30 -104 56 -207 56 -94
0 -146 -16 -156 -47 -10 -34 18 -49 122 -65 165 -25 241 -43 275 -66 129 -88
92 -255 -70 -319 -82 -32 -248 -32 -389 1 -82 19 -108 22 -123 13 -10 -6 -20
-8 -22 -4 -5 10 53 192 61 192 4 0 12 -10 17 -22 12 -29 81 -52 195 -68 115
-16 203 1 215 42 14 41 -29 61 -170 78 -117 14 -216 44 -254 75 -83 70 -55
207 56 271 97 57 217 67 408 34z m4535 1 c72 -13 111 -16 123 -9 10 5 21 8 23
5 8 -8 -80 -187 -90 -184 -6 2 -11 10 -11 18 0 26 -102 52 -205 53 -111 1
-155 -14 -155 -54 0 -34 29 -46 165 -65 151 -21 216 -42 261 -85 91 -87 40
-237 -99 -291 -82 -33 -258 -32 -396 0 -76 18 -104 21 -117 12 -10 -6 -20 -7
-22 -3 -7 12 48 185 60 189 6 2 13 -5 16 -17 7 -27 56 -46 169 -66 115 -20
190 -13 225 22 19 19 22 28 13 43 -13 25 -51 37 -185 55 -60 9 -126 20 -145
26 -119 34 -167 124 -121 225 57 127 232 171 491 126z m3500 -10 c41 -11 85
-18 98 -14 22 5 19 -2 -30 -101 -29 -58 -56 -106 -60 -106 -3 0 -8 10 -10 22
-5 37 -94 67 -199 68 -76 0 -94 -4 -140 -28 -103 -54 -126 -160 -52 -243 46
-51 112 -72 206 -67 88 4 189 48 197 86 3 13 10 24 15 24 10 1 134 -169 135
-184 0 -4 -10 -7 -22 -6 -13 1 -52 -11 -87 -26 -127 -55 -256 -68 -383 -41
-193 40 -291 147 -292 315 -1 161 100 275 278 316 81 18 248 11 346 -15z
m-7445 9 c-3 -5 -13 -10 -21 -10 -11 0 -14 -20 -14 -105 l0 -106 158 3 157 3
3 80 c3 93 -3 125 -23 125 -8 0 -15 5 -15 10 0 6 52 10 135 10 83 0 135 -4
135 -10 0 -5 -6 -10 -14 -10 -8 0 -17 -7 -20 -16 -8 -20 -8 -548 0 -568 3 -9
12 -16 20 -16 8 0 14 -4 14 -10 0 -6 -52 -10 -135 -10 -83 0 -135 4 -135 10 0
6 6 10 14 10 22 0 26 23 26 136 l0 104 -160 0 -160 0 0 -116 c0 -107 1 -116
20 -121 53 -14 7 -23 -120 -23 -127 0 -173 9 -120 23 19 5 20 14 20 297 0 283
-1 292 -20 297 -54 14 -7 23 121 23 91 0 138 -4 134 -10z m1235 0 c0 -5 -5
-10 -11 -10 -6 0 -8 -9 -3 -22 17 -57 258 -555 275 -570 10 -9 19 -19 19 -22
0 -3 -56 -6 -125 -6 -122 0 -125 1 -113 20 10 16 9 27 -10 65 l-22 45 -169 0
-169 0 -22 -52 c-15 -35 -19 -53 -11 -56 6 -2 11 -8 11 -13 0 -5 -49 -9 -110
-9 -60 0 -110 3 -110 8 0 4 9 13 20 20 11 7 20 17 20 22 0 5 54 131 120 278
66 148 120 274 120 280 0 7 -4 12 -10 12 -5 0 -10 5 -10 10 0 6 58 10 155 10
97 0 155 -4 155 -10z m1065 -25 c62 -39 90 -90 89 -165 -1 -83 -33 -132 -114
-176 -19 -10 -37 -20 -39 -21 -9 -6 125 -196 153 -219 l31 -24 -152 0 c-96 0
-153 4 -153 10 0 6 7 10 15 10 26 0 17 30 -37 127 l-53 93 -67 0 -68 0 0 -110
c0 -91 3 -110 15 -110 8 0 15 -4 15 -10 0 -6 -48 -10 -125 -10 -113 0 -151 8
-110 24 13 5 15 47 15 296 0 249 -2 291 -15 296 -51 20 8 25 268 22 l284 -3
48 -30z m2220 25 c-3 -5 -13 -10 -21 -10 -11 0 -14 -25 -14 -141 0 -133 1
-141 18 -128 38 30 229 198 251 222 23 26 22 47 -5 47 -8 0 -14 5 -14 10 0 6
55 10 145 10 80 0 145 -4 145 -8 0 -5 -15 -15 -32 -24 -18 -8 -81 -59 -140
-113 l-107 -98 116 -171 c63 -94 126 -181 139 -193 13 -12 24 -25 24 -28 0 -3
-67 -5 -150 -5 -135 0 -184 9 -130 23 11 3 20 10 20 16 0 8 -137 218 -157 240
-2 3 -30 -22 -63 -54 l-60 -59 0 -69 c0 -60 2 -70 20 -74 53 -14 7 -23 -120
-23 -127 0 -173 9 -120 23 19 5 20 14 20 295 0 289 0 290 -22 305 -21 15 -13
16 120 16 93 1 141 -3 137 -9z m3500 0 c-3 -5 -13 -10 -21 -10 -11 0 -14 -20
-14 -105 l0 -106 158 3 157 3 3 80 c3 93 -3 125 -23 125 -8 0 -15 5 -15 10 0
6 52 10 135 10 83 0 135 -4 135 -10 0 -5 -6 -10 -14 -10 -8 0 -17 -7 -20 -16
-3 -9 -6 -136 -6 -284 0 -148 3 -275 6 -284 3 -9 12 -16 20 -16 8 0 14 -4 14
-10 0 -6 -52 -10 -135 -10 -83 0 -135 4 -135 10 0 6 6 10 14 10 22 0 26 23 26
136 l0 104 -160 0 -160 0 0 -116 c0 -107 1 -116 20 -121 53 -14 7 -23 -120
-23 -127 0 -173 9 -120 23 19 5 20 14 20 297 0 283 -1 292 -20 297 -54 14 -7
23 121 23 91 0 138 -4 134 -10z"/>
<path d="M2538 3220 l-56 -120 118 0 119 0 -57 120 c-31 65 -59 119 -62 120
-3 0 -31 -54 -62 -120z"/>
<path d="M3430 3300 l0 -80 110 0 c128 0 176 14 186 54 20 80 -26 106 -186
106 l-110 0 0 -80z"/>
</g>
</svg>
